<svg width="640" height="360" viewBox="0 0 640 360" xmlns="http://www.w3.org/2000/svg">
  <rect width="640" height="360" rx="24" fill="#11223d"/>
  <rect x="60" y="58" width="520" height="244" rx="16" fill="#183251" stroke="#2a3657"/>
  <rect x="132" y="98" width="52" height="166" rx="10" fill="#d8b381"/>
  <rect x="200" y="110" width="52" height="154" rx="10" fill="#aed4a7"/>
  <rect x="268" y="88" width="52" height="176" rx="10" fill="#9bc0e0"/>
  <rect x="140" y="130" width="36" height="16" rx="6" fill="#b48f63"/>
  <rect x="208" y="140" width="36" height="16" rx="6" fill="#8ab683"/>
  <rect x="276" y="124" width="36" height="16" rx="6" fill="#7da3c3"/>
  <rect x="360" y="106" width="170" height="15" rx="7" fill="#2a3657"/>
  <rect x="360" y="134" width="140" height="12" rx="6" fill="#40537b"/>
  <rect x="360" y="158" width="150" height="12" rx="6" fill="#40537b"/>
  <rect x="360" y="196" width="145" height="34" rx="8" fill="#1f345f"/>
</svg>
