<svg xmlns="http://www.w3.org/2000/svg" viewBox="0 0 64 64" fill="none" role="img" aria-labelledby="novaLogoTitle">
  <title id="novaLogoTitle">Nova</title>
  <defs>
    <linearGradient id="sbGlow" x1="50%" y1="0%" x2="50%" y2="100%">
      <stop offset="0%" stop-color="#fff8fa"/>
      <stop offset="100%" stop-color="#ffe4ec"/>
    </linearGradient>
    <linearGradient id="sbBerry" x1="22%" y1="0%" x2="78%" y2="100%">
      <stop offset="0%" stop-color="#ff7a93"/>
      <stop offset="38%" stop-color="#ff3357"/>
      <stop offset="100%" stop-color="#c9153e"/>
    </linearGradient>
    <linearGradient id="sbLeaf" x1="0%" y1="0%" x2="100%" y2="100%">
      <stop offset="0%" stop-color="#8edd6a"/>
      <stop offset="100%" stop-color="#00b14a"/>
    </linearGradient>
  </defs>
  <circle cx="32" cy="34" r="29" fill="url(#sbGlow)"/>
  <path
    d="M32 58 C17 56 11 45 11 33 C11 23 18 17 26 16 L32 14 L38 16 C46 17 53 23 53 33 C53 45 47 56 32 58 Z"
    fill="url(#sbBerry)"
  />
  <ellipse cx="23" cy="31" rx="8" ry="12" fill="#fff" opacity="0.2" transform="rotate(-24 23 31)"/>
  <ellipse cx="25" cy="37" rx="1.1" ry="1.5" fill="#fff0c2" opacity="0.95" transform="rotate(-8 25 37)"/>
  <ellipse cx="39" cy="35" rx="1.1" ry="1.5" fill="#fff0c2" opacity="0.95" transform="rotate(12 39 35)"/>
  <ellipse cx="40" cy="45" rx="1.1" ry="1.5" fill="#fff0c2" opacity="0.9" transform="rotate(-16 40 45)"/>
  <ellipse cx="22" cy="45" rx="1.1" ry="1.5" fill="#fff0c2" opacity="0.9" transform="rotate(18 22 45)"/>
  <ellipse cx="32" cy="49" rx="1.1" ry="1.5" fill="#fff0c2" opacity="0.88"/>
  <ellipse cx="30" cy="25" rx="1" ry="1.35" fill="#fff0c2" opacity="0.85" transform="rotate(5 30 25)"/>
  <ellipse cx="36" cy="41" rx="1.05" ry="1.4" fill="#fff0c2" opacity="0.82" transform="rotate(28 36 41)"/>
  <!-- calyx: sits on berry -->
  <path
    d="M32 4.5 L35 11.5 L42 8.5 L38.5 14.5 L46 16 L38.5 16.5 L39.5 21.5 L32 17.5 L24.5 21.5 L25.5 16.5 L18 16 L25.5 14.5 L22 8.5 L29 11.5 Z"
    fill="url(#sbLeaf)"
  />
</svg>
