<svg width="640" height="420" viewBox="0 0 640 420" xmlns="http://www.w3.org/2000/svg">
  <defs>
    <linearGradient id="bg" x1="0" y1="0" x2="1" y2="1">
      <stop offset="0%" stop-color="#f5f5f7"/>
      <stop offset="100%" stop-color="#ebebf0"/>
    </linearGradient>
  </defs>
  <rect width="640" height="420" rx="24" fill="url(#bg)" stroke="#d1d1d6"/>
  <rect x="70" y="54" width="250" height="312" rx="18" fill="#ffffff" stroke="#d1d1d6"/>
  <rect x="95" y="84" width="200" height="18" rx="9" fill="#e5e5ea"/>
  <rect x="95" y="116" width="170" height="12" rx="6" fill="#d1d1d6"/>
  <rect x="95" y="140" width="200" height="12" rx="6" fill="#d1d1d6"/>
  <rect x="95" y="164" width="130" height="12" rx="6" fill="#d1d1d6"/>
  <rect x="95" y="198" width="200" height="58" rx="12" fill="#f5f5f7" stroke="#d1d1d6"/>
  <rect x="360" y="110" width="200" height="200" rx="22" fill="#ffffff" stroke="#d1d1d6"/>
  <circle cx="460" cy="208" r="66" fill="none" stroke="#00b14a" stroke-width="8"/>
  <line x1="506" y1="256" x2="548" y2="298" stroke="#00b14a" stroke-width="10" stroke-linecap="round"/>
  <rect x="396" y="142" width="128" height="15" rx="7" fill="#e5e5ea"/>
  <rect x="396" y="170" width="82" height="12" rx="6" fill="#d1d1d6"/>
  <rect x="396" y="228" width="110" height="12" rx="6" fill="#d1d1d6"/>
</svg>
